<mxfile host="app.diagrams.net" modified="2021-12-15T02:44:03.914Z" agent="5.0 (Windows NT 10.0; Win64; x64) AppleWebKit/537.36 (KHTML, like Gecko) Chrome/96.0.4664.45 Safari/537.36" etag="EFEnN7KYgcpHhjR5EPid" version="15.9.6" type="github">
  <diagram id="kgpKYQtTHZ0yAKxKKP6v" name="Page-1">
    <mxGraphModel dx="981" dy="532" grid="1" gridSize="10" guides="1" tooltips="1" connect="1" arrows="1" fold="1" page="1" pageScale="1" pageWidth="850" pageHeight="1100" math="0" shadow="0">
      <root>
        <mxCell id="0" />
        <mxCell id="1" parent="0" />
        <mxCell id="3nuBFxr9cyL0pnOWT2aG-1" value="用户" style="shape=umlLifeline;perimeter=lifelinePerimeter;container=1;collapsible=0;recursiveResize=0;rounded=0;shadow=0;strokeWidth=1;" parent="1" vertex="1">
          <mxGeometry x="120" y="80" width="100" height="390" as="geometry" />
        </mxCell>
        <mxCell id="3nuBFxr9cyL0pnOWT2aG-2" value="" style="points=[];perimeter=orthogonalPerimeter;rounded=0;shadow=0;strokeWidth=1;" parent="3nuBFxr9cyL0pnOWT2aG-1" vertex="1">
          <mxGeometry x="45" y="70" width="10" height="320" as="geometry" />
        </mxCell>
        <mxCell id="3nuBFxr9cyL0pnOWT2aG-5" value="openstack平台" style="shape=umlLifeline;perimeter=lifelinePerimeter;container=1;collapsible=0;recursiveResize=0;rounded=0;shadow=0;strokeWidth=1;" parent="1" vertex="1">
          <mxGeometry x="290" y="80" width="100" height="390" as="geometry" />
        </mxCell>
        <mxCell id="3nuBFxr9cyL0pnOWT2aG-6" value="" style="points=[];perimeter=orthogonalPerimeter;rounded=0;shadow=0;strokeWidth=1;" parent="3nuBFxr9cyL0pnOWT2aG-5" vertex="1">
          <mxGeometry x="45" y="70" width="10" height="320" as="geometry" />
        </mxCell>
        <mxCell id="3nuBFxr9cyL0pnOWT2aG-7" value="返回添加节点服务器结果" style="verticalAlign=bottom;endArrow=open;dashed=1;endSize=8;shadow=0;strokeWidth=1;" parent="1" source="3nuBFxr9cyL0pnOWT2aG-6" target="3nuBFxr9cyL0pnOWT2aG-2" edge="1">
          <mxGeometry relative="1" as="geometry">
            <mxPoint x="275" y="236" as="targetPoint" />
            <Array as="points">
              <mxPoint x="310" y="240" />
              <mxPoint x="270" y="240" />
            </Array>
          </mxGeometry>
        </mxCell>
        <mxCell id="3nuBFxr9cyL0pnOWT2aG-8" value="添加节点服务器" style="verticalAlign=bottom;endArrow=block;entryX=0;entryY=0;shadow=0;strokeWidth=1;" parent="1" source="3nuBFxr9cyL0pnOWT2aG-2" target="3nuBFxr9cyL0pnOWT2aG-6" edge="1">
          <mxGeometry relative="1" as="geometry">
            <mxPoint x="275" y="160" as="sourcePoint" />
          </mxGeometry>
        </mxCell>
        <mxCell id="W23UIXV-_5w0FqXgQNdE-2" value="运维服务模块" style="shape=umlLifeline;perimeter=lifelinePerimeter;container=1;collapsible=0;recursiveResize=0;rounded=0;shadow=0;strokeWidth=1;" vertex="1" parent="1">
          <mxGeometry x="445" y="80" width="100" height="390" as="geometry" />
        </mxCell>
        <mxCell id="W23UIXV-_5w0FqXgQNdE-4" value="配置节点服务器" style="verticalAlign=bottom;endArrow=block;shadow=0;strokeWidth=1;" edge="1" parent="1" source="3nuBFxr9cyL0pnOWT2aG-6" target="W23UIXV-_5w0FqXgQNdE-3">
          <mxGeometry relative="1" as="geometry">
            <mxPoint x="360" y="190" as="sourcePoint" />
            <mxPoint x="560" y="190" as="targetPoint" />
            <Array as="points">
              <mxPoint x="445" y="190" />
              <mxPoint x="460" y="190" />
            </Array>
          </mxGeometry>
        </mxCell>
        <mxCell id="W23UIXV-_5w0FqXgQNdE-5" value="返回添加配置状态" style="verticalAlign=bottom;endArrow=open;dashed=1;endSize=8;shadow=0;strokeWidth=1;" edge="1" parent="1" source="W23UIXV-_5w0FqXgQNdE-3" target="3nuBFxr9cyL0pnOWT2aG-6">
          <mxGeometry relative="1" as="geometry">
            <mxPoint x="360" y="220" as="targetPoint" />
            <mxPoint x="550" y="219.9999999999999" as="sourcePoint" />
            <Array as="points">
              <mxPoint x="390" y="220" />
            </Array>
          </mxGeometry>
        </mxCell>
        <mxCell id="W23UIXV-_5w0FqXgQNdE-9" value="返回操作节点服务器结果" style="verticalAlign=bottom;endArrow=open;dashed=1;endSize=8;shadow=0;strokeWidth=1;" edge="1" parent="1">
          <mxGeometry relative="1" as="geometry">
            <mxPoint x="175" y="388.9999999999999" as="targetPoint" />
            <mxPoint x="335" y="388.9999999999999" as="sourcePoint" />
            <Array as="points">
              <mxPoint x="310" y="389" />
              <mxPoint x="270" y="389" />
            </Array>
          </mxGeometry>
        </mxCell>
        <mxCell id="W23UIXV-_5w0FqXgQNdE-10" value="操作节点服务器" style="verticalAlign=bottom;endArrow=block;entryX=0;entryY=0;shadow=0;strokeWidth=1;" edge="1" parent="1">
          <mxGeometry relative="1" as="geometry">
            <mxPoint x="175" y="299.0000000000002" as="sourcePoint" />
            <mxPoint x="335" y="299.0000000000002" as="targetPoint" />
          </mxGeometry>
        </mxCell>
        <mxCell id="W23UIXV-_5w0FqXgQNdE-12" value="返回操作状态" style="verticalAlign=bottom;endArrow=open;dashed=1;endSize=8;shadow=0;strokeWidth=1;" edge="1" parent="1" source="W23UIXV-_5w0FqXgQNdE-3">
          <mxGeometry relative="1" as="geometry">
            <mxPoint x="345" y="360.9999999999999" as="targetPoint" />
            <mxPoint x="555" y="360.9999999999999" as="sourcePoint" />
            <Array as="points">
              <mxPoint x="390" y="361" />
            </Array>
          </mxGeometry>
        </mxCell>
        <mxCell id="W23UIXV-_5w0FqXgQNdE-15" style="edgeStyle=orthogonalEdgeStyle;rounded=0;orthogonalLoop=1;jettySize=auto;html=1;" edge="1" parent="1" source="W23UIXV-_5w0FqXgQNdE-3" target="W23UIXV-_5w0FqXgQNdE-14">
          <mxGeometry relative="1" as="geometry">
            <Array as="points">
              <mxPoint x="580" y="210" />
              <mxPoint x="580" y="210" />
            </Array>
          </mxGeometry>
        </mxCell>
        <mxCell id="W23UIXV-_5w0FqXgQNdE-19" style="edgeStyle=orthogonalEdgeStyle;rounded=0;orthogonalLoop=1;jettySize=auto;html=1;" edge="1" parent="1" source="W23UIXV-_5w0FqXgQNdE-3" target="W23UIXV-_5w0FqXgQNdE-14">
          <mxGeometry relative="1" as="geometry">
            <Array as="points">
              <mxPoint x="567" y="346" />
              <mxPoint x="567" y="346" />
            </Array>
          </mxGeometry>
        </mxCell>
        <mxCell id="W23UIXV-_5w0FqXgQNdE-3" value="" style="points=[];perimeter=orthogonalPerimeter;rounded=0;shadow=0;strokeWidth=1;" vertex="1" parent="1">
          <mxGeometry x="490" y="150" width="10" height="320" as="geometry" />
        </mxCell>
        <mxCell id="W23UIXV-_5w0FqXgQNdE-11" value="操作节点服务器" style="verticalAlign=bottom;endArrow=block;shadow=0;strokeWidth=1;" edge="1" parent="1" source="3nuBFxr9cyL0pnOWT2aG-6" target="W23UIXV-_5w0FqXgQNdE-3">
          <mxGeometry relative="1" as="geometry">
            <mxPoint x="280" y="330.9999999999999" as="sourcePoint" />
            <mxPoint x="505" y="331" as="targetPoint" />
            <Array as="points">
              <mxPoint x="380" y="331" />
              <mxPoint x="395" y="331" />
              <mxPoint x="425" y="331" />
              <mxPoint x="475" y="331" />
            </Array>
          </mxGeometry>
        </mxCell>
        <mxCell id="W23UIXV-_5w0FqXgQNdE-13" value="服务器" style="shape=umlLifeline;perimeter=lifelinePerimeter;container=1;collapsible=0;recursiveResize=0;rounded=0;shadow=0;strokeWidth=1;" vertex="1" parent="1">
          <mxGeometry x="600" y="80" width="100" height="390" as="geometry" />
        </mxCell>
        <mxCell id="W23UIXV-_5w0FqXgQNdE-14" value="" style="points=[];perimeter=orthogonalPerimeter;rounded=0;shadow=0;strokeWidth=1;" vertex="1" parent="W23UIXV-_5w0FqXgQNdE-13">
          <mxGeometry x="45" y="70" width="10" height="320" as="geometry" />
        </mxCell>
        <mxCell id="W23UIXV-_5w0FqXgQNdE-16" value="通过ansible\&lt;br&gt;redfish等操作目标主机" style="text;html=1;align=center;verticalAlign=middle;resizable=0;points=[];autosize=1;strokeColor=none;fillColor=none;" vertex="1" parent="1">
          <mxGeometry x="500" y="195" width="140" height="30" as="geometry" />
        </mxCell>
        <mxCell id="W23UIXV-_5w0FqXgQNdE-17" value="通过ansible\&lt;br&gt;redfish等操作目标主机" style="text;html=1;align=center;verticalAlign=middle;resizable=0;points=[];autosize=1;strokeColor=none;fillColor=none;" vertex="1" parent="1">
          <mxGeometry x="500" y="330" width="140" height="30" as="geometry" />
        </mxCell>
      </root>
    </mxGraphModel>
  </diagram>
</mxfile>
